<svg xmlns="http://www.w3.org/2000/svg" viewBox="0 0 229.86 132.61"><defs><style>.cls-1{fill:#fff;opacity:0.05;}</style></defs><g id="Layer_2" data-name="Layer 2"><g id="Layer_1-2" data-name="Layer 1"><path class="cls-1" d="M192.61,0h-2L153.28,21.8,116.19,0H114L77.09,21.76V.39L77.73,0h-2l.4.23V21.76L39.05,0H37.41L0,21.91v89.38l37.16,21.32h2.29L57.79,122.1l17.9,10.51h2l18.5-10,17.41,10h2.68l37-21.3,37.14,21.3h2.34l37.11-21.32V21.91ZM114.42,1V23.32L77.09,45.24V22.92ZM77.09,65.47V46.4l37.33-21.93V44ZM38.83,1,76.09,22.92V45.24L38.83,23.35Zm0,23.48L76.09,46.4v19L38.83,44ZM.5,22.77,37.83.85V23.47a.42.42,0,0,0,0,.31V44L.5,65.47ZM37.83,131.94.53,110.44V67.2l37.3,21.91ZM1,66.33,38.33,44.82l37.3,21.51L38.33,88.24Zm37.81,65.61V89.11L76.12,67.2v43.24Zm20-10.42,17.38-10v20.16Zm18.38,10.26v-20.2l18,10.41Zm37.31.16-37.29-21.5V67.23l37.29,21.7ZM77.65,66.34,115,44.82l37.15,21.42L115,88.06ZM152.78,90a.54.54,0,0,0,0,.22v20.19l-37.3,21.5v-43L152.78,67Zm0-24.57L115.47,44V.75l37.31,21.91Zm39.28-20.34,5.55,3.19,12.45,7.2-18,10.57Zm0,22.12L210.7,56.29a.47.47,0,0,0,.22-.28l17.94,10.37-36.8,21.39Zm0,21.69,37.3-21.69,0,22.59-37.32,21.92Zm-1,43L153.8,110.46V91l37.26,21.89Zm0-20.2L153.8,89.86V67l37.26,21.89Zm0-24L154.45,66.26,172.21,56a.49.49,0,0,0,.22.27l18.63,10.95Zm0-21.69-18-10.56,18-10.37Zm0-22.12L153.78,65.45V22.66L191.06.9Zm1,88V112.91L229.38,91v19.47Zm6.07-84.52L192.07,44V.83l37.29,21.94.1,42.75Z"/></g></g></svg>