<svg width="288" height="191" viewBox="0 0 288 191" fill="none" xmlns="http://www.w3.org/2000/svg">
<path d="M157.552 190.671V180.854H159.205V189.17H164.733V190.671H157.552Z" fill="#C8AB6D"/>
<path d="M175.434 190.671L174.42 188.166H170.028L169.013 190.671H167.258L171.407 180.915H173.121L177.26 190.671H175.434ZM172.209 182.183L170.626 186.665H173.791L172.209 182.183Z" fill="#C8AB6D"/>
<path d="M187.962 190.671L181.308 184.049V190.671H179.654V180.854H180.05L186.775 187.547V180.854H188.428V190.671H187.962Z" fill="#C8AB6D"/>
<path d="M191.907 190.671V180.854H195.721C198.764 180.854 200.326 182.457 200.326 185.762C200.326 189.068 198.805 190.671 195.721 190.671H191.907ZM193.561 182.497V189.038H195.721C197.679 189.038 198.673 187.902 198.673 185.762C198.673 183.623 197.659 182.497 195.721 182.497H193.561Z" fill="#C8AB6D"/>
<path d="M206.625 190.67C205.829 190.7 205.036 190.569 204.292 190.285C203.761 190.064 203.271 189.755 202.842 189.372L203.937 188.308C204.583 188.878 205.419 189.186 206.28 189.17C206.63 189.233 206.99 189.204 207.324 189.085C207.659 188.965 207.957 188.761 208.187 188.49C208.312 188.285 208.377 188.05 208.377 187.811C208.377 187.571 208.312 187.336 208.187 187.131C207.953 186.865 207.662 186.653 207.335 186.513C207.009 186.373 206.655 186.307 206.3 186.32C205.527 186.238 204.78 185.993 204.109 185.6C203.786 185.396 203.527 185.105 203.362 184.761C203.197 184.417 203.133 184.033 203.176 183.653C203.165 183.25 203.258 182.85 203.449 182.495C203.639 182.139 203.919 181.839 204.262 181.625C204.926 181.124 205.732 180.847 206.564 180.834C207.299 180.803 208.033 180.917 208.725 181.169C209.199 181.364 209.632 181.646 210.003 182L208.917 183.065C208.659 182.821 208.355 182.632 208.022 182.508C207.689 182.384 207.335 182.329 206.98 182.345C206.138 182.345 205.499 182.527 205.215 183.024C205.084 183.2 205.012 183.413 205.012 183.633C205.012 183.852 205.084 184.066 205.215 184.241C205.695 184.659 206.304 184.899 206.94 184.921C207.757 185.012 208.542 185.294 209.232 185.742C209.571 185.976 209.843 186.295 210.021 186.667C210.199 187.039 210.277 187.45 210.246 187.861C210.237 188.248 210.136 188.626 209.951 188.965C209.765 189.303 209.502 189.593 209.181 189.809C208.455 190.383 207.551 190.688 206.625 190.67Z" fill="#C8AB6D"/>
<path d="M214.08 189.301C213.181 188.358 212.679 187.106 212.679 185.803C212.679 184.5 213.181 183.247 214.08 182.304C214.537 181.841 215.084 181.475 215.688 181.231C216.292 180.987 216.939 180.869 217.59 180.885C218.857 180.863 220.092 181.279 221.089 182.061L219.973 183.268C219.28 182.769 218.444 182.509 217.59 182.527C217.153 182.51 216.717 182.582 216.309 182.739C215.901 182.896 215.529 183.135 215.216 183.44C214.914 183.745 214.677 184.108 214.52 184.507C214.363 184.906 214.29 185.334 214.303 185.762C214.277 186.203 214.344 186.644 214.501 187.057C214.657 187.47 214.9 187.844 215.213 188.156C215.526 188.468 215.901 188.709 216.314 188.865C216.728 189.02 217.169 189.086 217.61 189.058C218.456 189.075 219.285 188.819 219.973 188.328L221.089 189.525C220.098 190.317 218.859 190.733 217.59 190.701C216.941 190.715 216.295 190.599 215.692 190.359C215.089 190.118 214.541 189.759 214.08 189.301Z" fill="#C8AB6D"/>
<path d="M231.831 190.671L230.817 188.166H226.415L225.4 190.671H223.646L227.794 180.915H229.508L233.647 190.671H231.831ZM228.606 182.183L227.023 186.665H230.208L228.606 182.183Z" fill="#C8AB6D"/>
<path d="M237.755 186.452V190.671H236.092V180.854H240.352C242.695 180.854 243.77 181.787 243.77 183.602C243.77 185.418 242.695 186.452 240.362 186.452H237.755ZM237.755 182.396V184.982H240.798C241.721 184.982 242.289 184.525 242.289 183.653C242.289 182.781 241.721 182.396 240.818 182.396H237.755Z" fill="#C8AB6D"/>
<path d="M246.499 190.671V180.854H248.264V190.671H246.499Z" fill="#C8AB6D"/>
<path d="M260.04 190.671L253.386 184.049V190.671H251.733V180.854H252.139L258.864 187.547V180.854H260.507V190.671H260.04Z" fill="#C8AB6D"/>
<path d="M264.868 189.301C263.969 188.359 263.467 187.106 263.467 185.803C263.467 184.5 263.969 183.247 264.868 182.304C265.326 181.839 265.875 181.473 266.48 181.229C267.086 180.985 267.735 180.868 268.388 180.885C269.648 180.862 270.878 181.278 271.867 182.061L270.781 183.217C270.088 182.72 269.251 182.46 268.398 182.477C267.959 182.459 267.522 182.531 267.112 182.688C266.702 182.845 266.329 183.084 266.014 183.389C265.714 183.695 265.479 184.058 265.324 184.458C265.169 184.857 265.096 185.284 265.111 185.712C265.091 186.154 265.162 186.596 265.321 187.01C265.48 187.424 265.723 187.8 266.034 188.115C266.35 188.416 266.722 188.65 267.13 188.803C267.538 188.957 267.972 189.026 268.408 189.007C269.084 189.049 269.756 188.863 270.315 188.48V186.452H268.55V184.941H271.968V189.413C270.968 190.247 269.7 190.691 268.398 190.66C267.748 190.682 267.101 190.574 266.495 190.34C265.888 190.107 265.335 189.753 264.868 189.301Z" fill="#C8AB6D"/>
<path d="M22.3912 190.671V186.452H17.1977V190.671H15.5444V180.854H17.1977V184.911H22.4011V180.854H24.0546V190.671H22.3912Z" fill="#C8AB6D"/>
<path d="M34.9286 190.671L33.9142 188.166H29.5119L28.4976 190.671H26.7428L30.8915 180.915H32.5955L36.7443 190.671H34.9286ZM31.703 182.203L30.1308 186.685H33.2855L31.703 182.203Z" fill="#C8AB6D"/>
<path d="M45.1021 190.67L43.0125 186.929H40.9838V190.67H39.2087V180.915H43.5704C44.0661 180.88 44.5639 180.944 45.0342 181.105C45.5046 181.265 45.938 181.518 46.3091 181.848C46.5732 182.125 46.7778 182.454 46.9104 182.813C47.0429 183.172 47.1007 183.555 47.08 183.937C47.098 184.603 46.8888 185.254 46.4869 185.785C46.085 186.316 45.5144 186.694 44.8688 186.858L47.3437 190.64L45.1021 190.67ZM45.2541 184.049C45.2541 182.964 44.4834 182.456 43.3473 182.456H40.994V185.661H43.3879C44.5443 185.661 45.2541 185.053 45.2541 184.079V184.049Z" fill="#C8AB6D"/>
<path d="M50.1837 190.671V180.854H53.9469C56.9899 180.854 58.552 182.457 58.552 185.762C58.552 189.068 57.0304 190.671 53.9469 190.671H50.1837ZM51.837 182.497V189.038H53.9469C55.9045 189.038 56.8985 187.902 56.8985 185.762C56.8985 183.623 55.8842 182.497 53.9469 182.497H51.837Z" fill="#C8AB6D"/>
<path d="M64.8715 190.67C64.0759 190.7 63.2824 190.569 62.5385 190.285C62.0095 190.066 61.5223 189.757 61.0982 189.372L62.1836 188.308C62.8291 188.878 63.6651 189.186 64.5265 189.17C64.8761 189.233 65.2362 189.204 65.5709 189.085C65.9055 188.965 66.2031 188.761 66.4336 188.49C66.5626 188.287 66.631 188.051 66.631 187.811C66.631 187.57 66.5626 187.334 66.4336 187.131C66.2011 186.865 65.9119 186.654 65.5872 186.513C65.2625 186.373 64.9105 186.307 64.557 186.32C63.7804 186.24 63.03 185.994 62.356 185.6C62.037 185.392 61.7813 185.101 61.6168 184.757C61.4522 184.414 61.3852 184.032 61.4229 183.653C61.411 183.25 61.5049 182.85 61.6953 182.495C61.8857 182.139 62.1658 181.839 62.508 181.625C63.173 181.125 63.9789 180.848 64.8106 180.834C65.5457 180.803 66.2799 180.917 66.9713 181.169C67.4452 181.364 67.8787 181.646 68.2493 182L67.1639 183.065C66.9061 182.821 66.6016 182.631 66.2687 182.507C65.9358 182.384 65.5814 182.328 65.2266 182.345C64.3847 182.345 63.7457 182.527 63.4617 183.024C63.33 183.2 63.2586 183.413 63.2586 183.633C63.2586 183.852 63.33 184.066 63.4617 184.241C63.9365 184.66 64.5427 184.901 65.1759 184.921C65.994 185.01 66.7794 185.292 67.4683 185.742C67.8091 185.975 68.0824 186.293 68.2605 186.665C68.4386 187.038 68.5152 187.45 68.4826 187.861C68.482 188.244 68.3895 188.62 68.2129 188.959C68.0364 189.298 67.7811 189.589 67.4683 189.809C66.732 190.394 65.8118 190.699 64.8715 190.67Z" fill="#C8AB6D"/>
<path d="M72.3576 189.301C71.6642 188.61 71.1928 187.727 71.0032 186.766C70.8137 185.806 70.9147 184.81 71.2934 183.907C71.6722 183.004 72.3115 182.234 73.1297 181.696C73.9479 181.158 74.9082 180.875 75.8877 180.885C77.1516 180.863 78.3841 181.279 79.377 182.061L78.2712 183.268C77.5774 182.77 76.7413 182.511 75.8877 182.527C75.4492 182.51 75.0117 182.582 74.6019 182.739C74.1922 182.896 73.8186 183.134 73.5039 183.44C73.2036 183.746 72.9687 184.109 72.8135 184.508C72.6583 184.908 72.5861 185.334 72.6012 185.762C72.5805 186.205 72.6516 186.647 72.8105 187.061C72.9694 187.474 73.2125 187.851 73.5242 188.166C73.8393 188.467 74.2119 188.701 74.6198 188.854C75.0276 189.007 75.4625 189.077 75.8978 189.058C76.7468 189.075 77.5786 188.819 78.2712 188.328L79.377 189.525C78.3886 190.315 77.153 190.732 75.8877 190.701C75.2353 190.718 74.5862 190.602 73.9796 190.362C73.373 190.121 72.8211 189.761 72.3576 189.301Z" fill="#C8AB6D"/>
<path d="M90.1083 190.671L89.094 188.166H84.6919L83.6776 190.671H81.9228L86.0814 180.915H87.7857L91.9342 190.671H90.1083ZM86.8828 182.203L85.3004 186.685H88.4652L86.8828 182.203Z" fill="#C8AB6D"/>
<path d="M96.0317 186.452V190.671H94.3683V180.854H98.6691C101.012 180.854 102.087 181.787 102.087 183.602C102.087 185.418 101.012 186.452 98.6792 186.452H96.0317ZM96.0317 182.396V184.982H99.1356C100.049 184.982 100.617 184.525 100.617 183.653C100.617 182.781 100.049 182.396 99.1559 182.396H96.0317Z" fill="#C8AB6D"/>
<path d="M104.775 190.671V180.854H106.54V190.671H104.775Z" fill="#C8AB6D"/>
<path d="M118.327 190.671L111.662 184.049V190.671H110.019V180.854H110.415L117.14 187.547V180.854H118.793V190.671H118.327Z" fill="#C8AB6D"/>
<path d="M123.156 189.301C122.458 188.612 121.982 187.73 121.789 186.769C121.597 185.807 121.696 184.81 122.074 183.905C122.452 183.001 123.093 182.23 123.913 181.691C124.732 181.153 125.694 180.872 126.675 180.885C127.936 180.862 129.166 181.278 130.155 182.061L129.059 183.268C128.365 182.77 127.529 182.511 126.675 182.527C126.237 182.511 125.8 182.583 125.39 182.74C124.98 182.897 124.607 183.135 124.292 183.44C123.993 183.747 123.759 184.11 123.604 184.509C123.448 184.908 123.375 185.334 123.389 185.762C123.362 186.202 123.429 186.642 123.585 187.054C123.742 187.466 123.984 187.84 124.295 188.152C124.607 188.463 124.981 188.705 125.393 188.862C125.805 189.018 126.246 189.085 126.685 189.058C127.365 189.098 128.039 188.913 128.603 188.531V186.503H126.838V184.992H130.246V189.464C129.247 190.3 127.978 190.743 126.675 190.711C126.024 190.727 125.375 190.611 124.77 190.369C124.165 190.126 123.616 189.763 123.156 189.301Z" fill="#C8AB6D"/>
<path d="M146.019 190.894L145.004 189.646C144.621 190.065 144.149 190.392 143.622 190.605C143.095 190.817 142.528 190.909 141.961 190.873C139.588 190.873 138.634 189.504 138.634 187.912C138.658 187.19 138.901 186.492 139.33 185.911C139.76 185.33 140.355 184.893 141.038 184.657C140.669 184.201 140.472 183.631 140.48 183.045C140.48 181.666 141.708 180.753 143.26 180.753C143.687 180.75 144.11 180.832 144.506 180.994C144.901 181.155 145.26 181.394 145.562 181.696L144.822 183.014C143.615 182 142.408 182.365 142.428 183.166C142.512 183.609 142.723 184.018 143.037 184.343L145.065 186.949C145.377 186.356 145.527 185.691 145.501 185.022H147.033C147.052 186.156 146.753 187.273 146.171 188.247L147.317 189.677L146.019 190.894ZM143.919 188.45L141.89 185.884C141.483 186.025 141.129 186.289 140.878 186.64C140.628 186.99 140.492 187.41 140.491 187.841C140.479 188.05 140.513 188.259 140.59 188.454C140.668 188.648 140.788 188.823 140.94 188.966C141.093 189.11 141.276 189.217 141.475 189.282C141.674 189.347 141.885 189.368 142.093 189.342C142.443 189.34 142.789 189.258 143.103 189.104C143.418 188.949 143.693 188.726 143.909 188.45H143.919Z" fill="#C8AB6D"/>
<path d="M35.6686 161.029H39.7259V144.682C39.7435 144.52 39.7244 144.355 39.6699 144.201C39.6155 144.046 39.5272 143.906 39.4114 143.79C39.2956 143.674 39.1553 143.586 39.0008 143.532C38.8463 143.477 38.6817 143.458 38.5189 143.476H35.3845V138.253H42.6978C45.1627 138.253 46.4308 139.267 46.4308 141.66V143.303C46.4345 143.893 46.3971 144.483 46.3191 145.068H46.4308C47.6886 141.011 51.046 137.868 55.3265 137.868C55.7515 137.871 56.1755 137.908 56.5944 137.979V144.845C56.0297 144.768 55.4601 144.731 54.8902 144.733C49.2302 144.733 46.7047 149.672 46.7047 154.945V161.029H50.762V166.242H35.7092L35.6686 161.029Z" fill="#FBF6F0"/>
<path d="M72.9859 137.584C81.557 137.584 88.4241 143.668 88.4241 152.247C88.4241 160.826 81.5571 166.911 73.0468 166.911C64.5365 166.911 57.6086 160.826 57.6086 152.247C57.6086 143.668 64.506 137.584 72.9859 137.584ZM73.0468 160.979C77.5505 160.979 81.3339 157.47 81.3339 152.247C81.2544 150.619 80.6982 149.049 79.7344 147.734C78.7706 146.418 77.4418 145.414 75.9125 144.847C74.3833 144.28 72.7209 144.174 71.1321 144.543C69.5433 144.912 68.0979 145.739 66.9752 146.922C65.8524 148.105 65.1019 149.592 64.8167 151.197C64.5315 152.803 64.724 154.457 65.3707 155.954C66.0173 157.451 67.0895 158.725 68.4541 159.618C69.8187 160.512 71.4157 160.985 73.0468 160.979Z" fill="#FBF6F0"/>
<path d="M107.565 137.584C116.136 137.584 123.003 143.668 123.003 152.247C123.003 160.826 116.136 166.911 107.626 166.911C99.1153 166.911 92.1874 160.826 92.1874 152.247C92.1874 143.668 99.0547 137.584 107.565 137.584ZM107.626 160.979C112.129 160.979 115.913 157.47 115.913 152.247C115.833 150.619 115.277 149.049 114.313 147.734C113.35 146.418 112.021 145.414 110.491 144.847C108.962 144.28 107.3 144.174 105.711 144.543C104.122 144.912 102.677 145.739 101.554 146.922C100.431 148.105 99.6807 149.592 99.3955 151.197C99.1103 152.803 99.3031 154.457 99.9497 155.954C100.596 157.451 101.669 158.725 103.033 159.618C104.398 160.512 105.995 160.985 107.626 160.979Z" fill="#FBF6F0"/>
<path d="M157.278 156.902H163.262V158.555C163.262 160.471 165.849 161.465 168.75 161.465C171.651 161.465 173.537 160.451 173.537 158.606C173.537 156.243 170.9 155.644 167.157 154.265C163.039 152.846 158.312 150.919 158.312 145.595C158.312 139.663 164.246 137.574 169.358 137.574C173.416 137.574 179.502 139.166 179.502 143.395V146.964H173.405V145.372C173.405 143.942 171.762 143.07 169.287 143.07C167.086 143.07 165.23 143.831 165.23 145.595C165.23 147.897 167.979 148.83 171.113 149.763C175.394 151.142 180.445 152.896 180.445 158.393C180.445 164.051 175.069 166.901 168.638 166.901C163.566 166.901 157.267 164.7 157.267 160.147L157.278 156.902Z" fill="#FBF6F0"/>
<path d="M187.819 143.455H183.549V138.233H188.052V130.597H194.818V138.233H201.188V143.455H194.818V155.259C194.818 160.035 198.439 160.695 200.417 160.695C201.188 160.695 201.685 160.644 201.685 160.644V166.353C200.974 166.466 200.254 166.52 199.534 166.515C195.579 166.515 187.839 165.359 187.839 155.969L187.819 143.455Z" fill="#FBF6F0"/>
<path d="M218.219 137.31C226.334 137.31 230.685 143.192 230.685 150.605C230.685 151.426 230.523 152.967 230.523 152.967H211.129C211.211 155.116 212.142 157.144 213.719 158.606C215.296 160.068 217.389 160.845 219.538 160.766C222.485 160.645 225.321 159.61 227.652 157.804L230.34 162.743C227.132 165.305 223.137 166.68 219.031 166.637C209.749 166.637 203.978 159.944 203.978 151.984C203.988 143.354 209.81 137.31 218.219 137.31ZM223.494 148.85C223.382 145.007 221.019 142.695 218.047 142.695C214.476 142.695 211.961 145.169 211.291 148.85H223.494Z" fill="#FBF6F0"/>
<path d="M253.426 161.029H257.484V144.682C257.501 144.52 257.482 144.355 257.428 144.2C257.374 144.046 257.285 143.906 257.169 143.79C257.053 143.674 256.913 143.586 256.759 143.532C256.604 143.477 256.44 143.458 256.277 143.476H253.143V138.253H260.507C262.972 138.253 264.128 139.409 264.128 141.387V142.654C264.123 143.059 264.086 143.462 264.016 143.861H264.128C265.077 141.945 266.552 140.34 268.381 139.232C270.21 138.124 272.316 137.559 274.454 137.604C280.438 137.604 283.846 140.849 283.846 148.262V161.06H287.904V166.272H276.919V149.651C276.919 146.254 275.985 143.942 272.465 143.942C267.394 143.942 264.452 148.779 264.452 153.667V161.029H268.459V166.242H253.406L253.426 161.029Z" fill="#FBF6F0"/>
<path d="M245.241 127.504H238.212V133.71H245.241V127.504Z" fill="#FBF6F0"/>
<path d="M246.022 161.019V138.223H234.702V143.455H242.117L239.043 145.24V161.019H234.976V166.242H250.028V161.019H246.022Z" fill="#FBF6F0"/>
<path d="M152.044 161.029C150.725 161.029 150.238 160.857 149.741 160.015L145.786 153.099C145.32 152.119 144.575 151.297 143.645 150.736V150.625L149.731 143.435H153.352V138.213H139.933V143.435H143.168L138.614 148.81H134.932V127.251H123.612V132.686H130.763L127.953 134.319V161.029H123.896V166.242H137.904V161.029H134.861V153.931H136.504C137.519 153.931 138.371 153.981 138.918 154.945L143.99 163.787C145.086 165.816 146.019 166.201 148.382 166.201H153.606V160.989L152.044 161.029Z" fill="#FBF6F0"/>
<path d="M26.124 145.757V145.696C27.6184 144.888 28.8574 143.678 29.7014 142.204C30.5455 140.729 30.961 139.048 30.9015 137.351C30.968 135.42 30.4326 133.516 29.3696 131.903C28.3065 130.29 26.7682 129.047 24.9675 128.346C22.733 127.543 20.3597 127.198 17.989 127.332H0.0858154V132.767H7.57175L4.75186 134.4V160.907H0.0858154V166.292H18.8714C20.8337 166.353 22.7946 166.131 24.6936 165.633C26.964 164.954 28.9498 163.55 30.3473 161.637C31.7448 159.723 32.4773 157.405 32.4332 155.036C32.4129 150.868 30.4654 147.076 26.124 145.757ZM11.9233 133.021H18.0093C19.1559 132.965 20.3003 133.169 21.3567 133.619C22.1078 134.08 22.7164 134.74 23.1157 135.526C23.5149 136.311 23.6891 137.192 23.6186 138.071C23.6186 141.032 21.9146 143.141 18.831 143.141H11.9741L11.9233 133.021ZM21.9753 160.035C21.0717 160.345 20.1205 160.493 19.1655 160.471H11.9233V148.891H19.4394C20.1975 148.833 20.959 148.94 21.6719 149.204C22.3848 149.468 23.0323 149.883 23.5698 150.42C24.1074 150.957 24.5225 151.605 24.7865 152.317C25.0505 153.03 25.1573 153.791 25.0995 154.549C25.1762 155.666 24.924 156.78 24.3742 157.755C23.8244 158.73 23.001 159.523 22.0057 160.035H21.9753Z" fill="#FBF6F0"/>
<path d="M188.245 47.7475L149.964 69.7224C149.801 69.8168 149.615 69.8665 149.426 69.8664C149.237 69.8663 149.052 69.8164 148.888 69.7218C148.725 69.6273 148.589 69.4913 148.495 69.3276C148.4 69.1639 148.351 68.9783 148.352 68.7894V54.0144C148.35 53.5827 148.462 53.1582 148.678 52.7842C148.894 52.4101 149.204 52.0998 149.579 51.8849L187.799 29.9505C187.963 29.8561 188.148 29.8064 188.337 29.8065C188.526 29.8066 188.712 29.8565 188.875 29.951C189.039 30.0456 189.174 30.1816 189.268 30.3453C189.363 30.509 189.412 30.6946 189.412 30.8835V45.7396C189.414 46.1478 189.307 46.5492 189.102 46.9021C188.897 47.2551 188.601 47.547 188.245 47.7475Z" fill="#FBF6F0"/>
<path d="M149.508 23.4706L168.78 12.4274C169.129 12.2282 169.524 12.1235 169.926 12.1235C170.328 12.1235 170.723 12.2282 171.073 12.4274L184.259 20.0634C184.423 20.1574 184.56 20.2932 184.655 20.4571C184.75 20.6209 184.8 20.8069 184.8 20.9963C184.8 21.1857 184.75 21.3717 184.655 21.5355C184.56 21.6994 184.423 21.8352 184.259 21.9292L149.944 41.6225C149.78 41.7169 149.595 41.7666 149.406 41.7665C149.217 41.7664 149.031 41.7166 148.868 41.622C148.704 41.5274 148.569 41.3914 148.474 41.2277C148.38 41.064 148.331 40.8784 148.331 40.6895V25.4785C148.333 25.0699 148.443 24.6691 148.65 24.3166C148.856 23.964 149.152 23.6722 149.508 23.4706Z" fill="#FBF6F0"/>
<path d="M159.56 7.66129L149.964 13.1677C149.801 13.2621 149.615 13.3118 149.426 13.3117C149.237 13.3116 149.052 13.2618 148.888 13.1672C148.725 13.0726 148.589 12.9366 148.495 12.7729C148.4 12.6092 148.351 12.4236 148.352 12.2347V1.19152C148.351 1.00266 148.4 0.817042 148.495 0.65335C148.589 0.489658 148.725 0.353671 148.888 0.259085C149.052 0.1645 149.237 0.114653 149.426 0.114563C149.615 0.114474 149.801 0.164144 149.964 0.258575L159.56 5.79539C159.724 5.88945 159.861 6.02528 159.956 6.18911C160.051 6.35294 160.101 6.53896 160.101 6.72835C160.101 6.91773 160.051 7.10374 159.956 7.26757C159.861 7.43139 159.724 7.56722 159.56 7.66129Z" fill="#FBF6F0"/>
<path d="M139.638 1.19151V40.6895C139.639 40.8784 139.589 41.064 139.495 41.2277C139.401 41.3914 139.265 41.5274 139.102 41.622C138.938 41.7165 138.753 41.7664 138.564 41.7665C138.375 41.7666 138.189 41.7169 138.026 41.6225L103.711 21.9799C103.546 21.8859 103.409 21.7501 103.314 21.5862C103.219 21.4224 103.17 21.2364 103.17 21.047C103.17 20.8576 103.219 20.6716 103.314 20.5078C103.409 20.3439 103.546 20.2081 103.711 20.1141L138.026 0.309274C138.186 0.216729 138.366 0.166945 138.551 0.16472C138.736 0.162496 138.918 0.207902 139.08 0.29657C139.243 0.385237 139.379 0.514162 139.477 0.67092C139.574 0.827677 139.63 1.00697 139.638 1.19151Z" fill="#C8AB6D"/>
<path d="M138.026 98.2278L99.4809 75.9893C99.2032 75.829 98.9726 75.5984 98.8123 75.3207C98.652 75.0429 98.5677 74.7279 98.5679 74.4073V30.8835C98.5675 30.6946 98.617 30.509 98.7113 30.3453C98.8055 30.1816 98.941 30.0456 99.1045 29.951C99.268 29.8565 99.4537 29.8066 99.6426 29.8065C99.8315 29.8064 100.017 29.8561 100.181 29.9505L138.583 51.9964C138.899 52.1785 139.16 52.4421 139.338 52.7598C139.517 53.0774 139.606 53.4372 139.598 53.8014V97.2949C139.594 97.4779 139.544 97.6571 139.452 97.8153C139.36 97.9735 139.229 98.1057 139.072 98.1991C138.914 98.2926 138.736 98.3442 138.552 98.3493C138.369 98.3543 138.188 98.3125 138.026 98.2278Z" fill="#C8AB6D"/>
<path d="M188.398 76.0502L149.964 98.2279C149.801 98.3223 149.615 98.372 149.426 98.3719C149.237 98.3718 149.052 98.3219 148.888 98.2274C148.725 98.1328 148.589 97.9968 148.495 97.8331C148.4 97.6694 148.351 97.4838 148.352 97.2949V82.0839C148.358 81.6699 148.473 81.2649 148.685 80.9091C148.897 80.5534 149.198 80.2591 149.559 80.0557L187.799 58.1011C187.963 58.0067 188.148 57.957 188.337 57.9571C188.526 57.9572 188.712 58.007 188.875 58.1016C189.039 58.1962 189.174 58.3322 189.268 58.4959C189.363 58.6596 189.412 58.8452 189.412 59.034V74.3364C189.404 74.6851 189.307 75.0261 189.13 75.3263C188.952 75.6265 188.7 75.8758 188.398 76.0502Z" fill="#FBF6F0"/>
</svg>
